# xmcd CD database file
#
# Track frame offsets:
#	157
#	12607
#	32782
#	58207
#	72907
#	88132
#	105532
#	117007
#	135232
#	151357
#	174157
#	198007
#	214357
#
# Disc length: 3237 seconds
#
# Revision: 0
# Processed by: cddbd v1.4PL0 Copyright (c) Steve Scherf et al.
# Submitted via: CDex 1.50
#
DISCID=ae0ca30d
DTITLE=Louis Armstrong - Hello Dolly
DYEAR=1989
DGENRE=Jazz
TTITLE0=When it's sleepy time down south
TTITLE1=Indiana
TTITLE2=Give me a kiss to build a dream on
TTITLE3=The bucket's got a hole in it
TTITLE4=Mack the knife
TTITLE5=When the sainst go marching in
TTITLE6=Hello Dolly
TTITLE7=Ole miss
TTITLE8=C'est si bon
TTITLE9=La vie en rose
TTITLE10=The faithful hussar
TTITLE11=After you've gone
TTITLE12=New Orleans Function
EXTD=YEAR: 1989
EXTT0=
EXTT1=
EXTT2=
EXTT3=
EXTT4=
EXTT5=
EXTT6=
EXTT7=
EXTT8=
EXTT9=
EXTT10=
EXTT11=
EXTT12=
PLAYORDER=
